<mxfile host="app.diagrams.net" modified="2023-02-14T09:18:57.163Z" agent="5.0 (Macintosh; Intel Mac OS X 10_15_7) AppleWebKit/537.36 (KHTML, like Gecko) Chrome/109.0.0.0 Safari/537.36" etag="C1XDm8mLA8-mZm8IbdYV" version="15.3.8" type="github">
  <diagram id="3981-tncDnQIrTfhKfqF" name="Page-1">
    <mxGraphModel dx="946" dy="614" grid="1" gridSize="10" guides="1" tooltips="1" connect="1" arrows="1" fold="1" page="1" pageScale="1" pageWidth="827" pageHeight="1169" math="0" shadow="0">
      <root>
        <mxCell id="0" />
        <mxCell id="1" parent="0" />
        <mxCell id="Vf9fLuBw0aovJSeag3rD-1" value="运行商" style="rounded=1;whiteSpace=wrap;html=1;fontStyle=1;fontSize=14;" vertex="1" parent="1">
          <mxGeometry x="90" y="160" width="100" height="40" as="geometry" />
        </mxCell>
        <mxCell id="Vf9fLuBw0aovJSeag3rD-2" value="1" style="ellipse;whiteSpace=wrap;html=1;aspect=fixed;fontColor=#FF3333;strokeColor=#FF3333;" vertex="1" parent="1">
          <mxGeometry x="80" y="150" width="20" height="20" as="geometry" />
        </mxCell>
        <mxCell id="Vf9fLuBw0aovJSeag3rD-3" value="根域名服务器" style="rounded=1;whiteSpace=wrap;html=1;fontSize=14;fontStyle=1" vertex="1" parent="1">
          <mxGeometry x="364" y="160" width="166" height="40" as="geometry" />
        </mxCell>
        <mxCell id="Vf9fLuBw0aovJSeag3rD-4" value="" style="endArrow=classic;html=1;exitX=1;exitY=0.25;exitDx=0;exitDy=0;entryX=0;entryY=0.25;entryDx=0;entryDy=0;" edge="1" parent="1" source="Vf9fLuBw0aovJSeag3rD-1" target="Vf9fLuBw0aovJSeag3rD-3">
          <mxGeometry width="50" height="50" relative="1" as="geometry">
            <mxPoint x="200" y="290" as="sourcePoint" />
            <mxPoint x="250" y="240" as="targetPoint" />
          </mxGeometry>
        </mxCell>
        <mxCell id="Vf9fLuBw0aovJSeag3rD-5" value="" style="endArrow=classic;html=1;exitX=0;exitY=0.75;exitDx=0;exitDy=0;entryX=1;entryY=0.75;entryDx=0;entryDy=0;" edge="1" parent="1" source="Vf9fLuBw0aovJSeag3rD-3" target="Vf9fLuBw0aovJSeag3rD-1">
          <mxGeometry width="50" height="50" relative="1" as="geometry">
            <mxPoint x="210" y="260" as="sourcePoint" />
            <mxPoint x="260" y="210" as="targetPoint" />
          </mxGeometry>
        </mxCell>
        <mxCell id="Vf9fLuBw0aovJSeag3rD-6" value="顶级域 com 的 IP 地址" style="text;html=1;strokeColor=none;fillColor=none;align=center;verticalAlign=middle;whiteSpace=wrap;rounded=0;" vertex="1" parent="1">
          <mxGeometry x="210" y="200" width="130" height="20" as="geometry" />
        </mxCell>
        <mxCell id="Vf9fLuBw0aovJSeag3rD-7" value="运行商" style="rounded=1;whiteSpace=wrap;html=1;fontStyle=1;fontSize=14;" vertex="1" parent="1">
          <mxGeometry x="90" y="240" width="100" height="40" as="geometry" />
        </mxCell>
        <mxCell id="Vf9fLuBw0aovJSeag3rD-8" value="2" style="ellipse;whiteSpace=wrap;html=1;aspect=fixed;strokeColor=#FF3333;fontColor=#FF3333;" vertex="1" parent="1">
          <mxGeometry x="80" y="230" width="20" height="20" as="geometry" />
        </mxCell>
        <mxCell id="Vf9fLuBw0aovJSeag3rD-9" value="顶级域名服务器" style="rounded=1;whiteSpace=wrap;html=1;fontSize=14;fontStyle=1" vertex="1" parent="1">
          <mxGeometry x="364" y="240" width="166" height="40" as="geometry" />
        </mxCell>
        <mxCell id="Vf9fLuBw0aovJSeag3rD-10" value="" style="endArrow=classic;html=1;exitX=1;exitY=0.25;exitDx=0;exitDy=0;entryX=0;entryY=0.25;entryDx=0;entryDy=0;" edge="1" parent="1" source="Vf9fLuBw0aovJSeag3rD-7" target="Vf9fLuBw0aovJSeag3rD-9">
          <mxGeometry width="50" height="50" relative="1" as="geometry">
            <mxPoint x="200" y="370" as="sourcePoint" />
            <mxPoint x="250" y="320" as="targetPoint" />
          </mxGeometry>
        </mxCell>
        <mxCell id="Vf9fLuBw0aovJSeag3rD-11" value="" style="endArrow=classic;html=1;exitX=0;exitY=0.75;exitDx=0;exitDy=0;entryX=1;entryY=0.75;entryDx=0;entryDy=0;" edge="1" parent="1" source="Vf9fLuBw0aovJSeag3rD-9" target="Vf9fLuBw0aovJSeag3rD-7">
          <mxGeometry width="50" height="50" relative="1" as="geometry">
            <mxPoint x="210" y="340" as="sourcePoint" />
            <mxPoint x="260" y="290" as="targetPoint" />
          </mxGeometry>
        </mxCell>
        <mxCell id="Vf9fLuBw0aovJSeag3rD-12" value="二级域名 imooc 的 IP 地址" style="text;html=1;strokeColor=none;fillColor=none;align=center;verticalAlign=middle;whiteSpace=wrap;rounded=0;" vertex="1" parent="1">
          <mxGeometry x="200" y="280" width="150" height="20" as="geometry" />
        </mxCell>
        <mxCell id="Vf9fLuBw0aovJSeag3rD-13" value="运行商" style="rounded=1;whiteSpace=wrap;html=1;fontStyle=1;fontSize=14;" vertex="1" parent="1">
          <mxGeometry x="90" y="320" width="100" height="40" as="geometry" />
        </mxCell>
        <mxCell id="Vf9fLuBw0aovJSeag3rD-14" value="3" style="ellipse;whiteSpace=wrap;html=1;aspect=fixed;strokeColor=#FF3333;fontColor=#FF3333;" vertex="1" parent="1">
          <mxGeometry x="80" y="310" width="20" height="20" as="geometry" />
        </mxCell>
        <mxCell id="Vf9fLuBw0aovJSeag3rD-15" value="imooc.com 域服务器" style="rounded=1;whiteSpace=wrap;html=1;fontSize=14;fontStyle=1" vertex="1" parent="1">
          <mxGeometry x="364" y="320" width="166" height="40" as="geometry" />
        </mxCell>
        <mxCell id="Vf9fLuBw0aovJSeag3rD-16" value="" style="endArrow=classic;html=1;exitX=1;exitY=0.25;exitDx=0;exitDy=0;entryX=0;entryY=0.25;entryDx=0;entryDy=0;" edge="1" parent="1" source="Vf9fLuBw0aovJSeag3rD-13" target="Vf9fLuBw0aovJSeag3rD-15">
          <mxGeometry width="50" height="50" relative="1" as="geometry">
            <mxPoint x="200" y="450" as="sourcePoint" />
            <mxPoint x="250" y="400" as="targetPoint" />
          </mxGeometry>
        </mxCell>
        <mxCell id="Vf9fLuBw0aovJSeag3rD-17" value="" style="endArrow=classic;html=1;exitX=0;exitY=0.75;exitDx=0;exitDy=0;entryX=1;entryY=0.75;entryDx=0;entryDy=0;" edge="1" parent="1" source="Vf9fLuBw0aovJSeag3rD-15" target="Vf9fLuBw0aovJSeag3rD-13">
          <mxGeometry width="50" height="50" relative="1" as="geometry">
            <mxPoint x="210" y="420" as="sourcePoint" />
            <mxPoint x="260" y="370" as="targetPoint" />
          </mxGeometry>
        </mxCell>
        <mxCell id="Vf9fLuBw0aovJSeag3rD-18" value="结果返回" style="text;html=1;strokeColor=none;fillColor=none;align=center;verticalAlign=middle;whiteSpace=wrap;rounded=0;" vertex="1" parent="1">
          <mxGeometry x="200" y="360" width="150" height="20" as="geometry" />
        </mxCell>
      </root>
    </mxGraphModel>
  </diagram>
</mxfile>
